#N canvas 982 83 938 391 10;
#X declare -lib mrpeach;
#X floatatom 180 -82 5 0 0 0 - - -;
#X floatatom 16 -93 5 0 0 0 - - -;
#X floatatom 64 -86 5 0 0 0 - - -;
#X obj 145 -72 - 64;
#X floatatom 179 -47 5 0 0 0 - - -;
#X obj 145 -106 ctlin 81 1;
#X obj 20 -155 ctlin;
#X floatatom -6 -123 5 0 0 0 - - -;
#X msg 145 7 send /center 1 \$1;
#X obj -5 -186 import mrpeach;
#X obj 145 40 packOSC;
#X obj 145 76 udpsend;
#X msg -2 55 connect localhost 1234;
#X text 146 -133 Center1;
#X floatatom 298 -82 5 0 0 0 - - -;
#X floatatom 297 -47 5 0 0 0 - - -;
#X obj 263 40 packOSC;
#X msg 263 7 send /low 1 \$1;
#X obj 263 -25 * 2000;
#X floatatom 395 -82 5 0 0 0 - - -;
#X floatatom 394 -47 5 0 0 0 - - -;
#X obj 360 40 packOSC;
#X msg 360 7 send /high 1 \$1;
#X obj 360 -25 * 8000;
#X obj 263 -72 / 127;
#X obj 360 -72 / 127;
#X obj 309 -18 + 1;
#X obj 145 -25 * 4000;
#X floatatom 505 -81 5 0 0 0 - - -;
#X obj 470 -71 - 64;
#X floatatom 504 -46 5 0 0 0 - - -;
#X obj 470 41 packOSC;
#X floatatom 623 -81 5 0 0 0 - - -;
#X floatatom 622 -46 5 0 0 0 - - -;
#X obj 588 -24 * 2000;
#X floatatom 720 -81 5 0 0 0 - - -;
#X floatatom 719 -46 5 0 0 0 - - -;
#X obj 685 -24 * 8000;
#X obj 588 -71 / 127;
#X obj 685 -71 / 127;
#X obj 634 -17 + 1;
#X obj 470 -24 * 4000;
#X floatatom 176 156 5 0 0 0 - - -;
#X obj 141 166 - 64;
#X floatatom 175 191 5 0 0 0 - - -;
#X obj 91 293 packOSC;
#X floatatom 294 156 5 0 0 0 - - -;
#X floatatom 293 191 5 0 0 0 - - -;
#X obj 259 213 * 2000;
#X floatatom 391 156 5 0 0 0 - - -;
#X floatatom 390 191 5 0 0 0 - - -;
#X obj 356 213 * 8000;
#X obj 259 166 / 127;
#X obj 356 166 / 127;
#X obj 305 220 + 1;
#X obj 141 213 * 4000;
#X floatatom 512 157 5 0 0 0 - - -;
#X obj 477 167 - 64;
#X floatatom 511 192 5 0 0 0 - - -;
#X floatatom 630 157 5 0 0 0 - - -;
#X floatatom 629 192 5 0 0 0 - - -;
#X obj 595 214 * 2000;
#X floatatom 727 157 5 0 0 0 - - -;
#X floatatom 726 192 5 0 0 0 - - -;
#X obj 692 214 * 8000;
#X obj 595 167 / 127;
#X obj 692 167 / 127;
#X obj 641 221 + 1;
#X obj 477 214 * 4000;
#X text 471 -132 Center2;
#X text 142 105 Center3;
#X text 478 106 Center4;
#X obj 263 -106 ctlin 89 1;
#X obj 360 -106 ctlin 97 1;
#X obj 470 -105 ctlin 82 1;
#X obj 588 -105 ctlin 90 1;
#X obj 685 -105 ctlin 98 1;
#X msg 685 8 send /high 2 \$1;
#X msg 588 8 send /low 2 \$1;
#X msg 470 8 send /center 2 \$1;
#X obj 141 132 ctlin 83 1;
#X obj 259 132 ctlin 91 1;
#X obj 356 132 ctlin 99 1;
#X obj 692 133 ctlin 100 1;
#X obj 595 133 ctlin 92 1;
#X obj 477 133 ctlin 84 1;
#X floatatom 84 -66 5 0 0 0 - - -;
#X obj 397 -199 ctlin 2 1;
#X obj 459 -179 * 100000;
#X obj 561 -168 * 1000;
#X obj 554 -200 ctlin 3 1;
#X obj 442 -153 +;
#X msg 141 245 send /center 3 \$1;
#X msg 259 245 send /low 3 \$1;
#X msg 356 245 send /high 3 \$1;
#X msg 477 246 send /center 4 \$1;
#X msg 595 246 send /low 4 \$1;
#X msg 692 246 send /high 4 \$1;
#X obj 382 -150 +;
#X obj 136 515 packOSC;
#X obj 233 322 ctlin 1 1;
#X floatatom 232 301 5 0 0 0 - - -;
#X floatatom 315 306 5 0 0 0 - - -;
#X floatatom 412 306 5 0 0 0 - - -;
#X obj 315 326 ctlin 2 1;
#X obj 410 327 ctlin 3 1;
#X obj 233 350 + 24;
#X obj 232 374 * 1e+06;
#X floatatom 271 478 16 0 0 0 - - -;
#X obj 318 378 * 1e+06;
#X floatatom 342 427 10 0 0 0 - - -;
#X floatatom 191 404 10 0 0 0 - - -;
#X obj 293 452 +;
#X obj 317 353 + 24;
#X msg 255 516 send /center 0 \$1;
#X obj 43 3 bng 15 250 50 0 empty empty empty 17 7 0 10 -262144 -1
-1;
#X floatatom 781 -83 0 0 0 0 - - -;
#X floatatom 814 -83 0 0 0 0 - - -;
#X obj 781 -114 midiin 2;
#X obj 797 -40 notein;
#X floatatom 775 -10 0 0 0 0 - - -;
#X floatatom 808 -10 0 0 0 0 - - -;
#X floatatom 850 -8 0 0 0 0 - - -;
#X connect 3 0 4 0;
#X connect 3 0 27 0;
#X connect 5 0 0 0;
#X connect 5 0 3 0;
#X connect 6 0 7 0;
#X connect 6 1 1 0;
#X connect 6 2 2 0;
#X connect 8 0 10 0;
#X connect 10 0 11 0;
#X connect 12 0 11 0;
#X connect 16 0 11 0;
#X connect 17 0 16 0;
#X connect 18 0 26 0;
#X connect 21 0 11 0;
#X connect 22 0 21 0;
#X connect 23 0 22 0;
#X connect 24 0 15 0;
#X connect 24 0 18 0;
#X connect 25 0 20 0;
#X connect 25 0 23 0;
#X connect 26 0 17 0;
#X connect 27 0 8 0;
#X connect 29 0 30 0;
#X connect 29 0 41 0;
#X connect 31 0 11 0;
#X connect 34 0 40 0;
#X connect 37 0 77 0;
#X connect 38 0 33 0;
#X connect 38 0 34 0;
#X connect 39 0 36 0;
#X connect 39 0 37 0;
#X connect 40 0 78 0;
#X connect 41 0 79 0;
#X connect 43 0 44 0;
#X connect 43 0 55 0;
#X connect 45 0 11 0;
#X connect 48 0 54 0;
#X connect 51 0 94 0;
#X connect 52 0 47 0;
#X connect 52 0 48 0;
#X connect 53 0 50 0;
#X connect 53 0 51 0;
#X connect 54 0 93 0;
#X connect 55 0 92 0;
#X connect 57 0 58 0;
#X connect 57 0 68 0;
#X connect 61 0 67 0;
#X connect 64 0 97 0;
#X connect 65 0 60 0;
#X connect 65 0 61 0;
#X connect 66 0 63 0;
#X connect 66 0 64 0;
#X connect 67 0 96 0;
#X connect 68 0 95 0;
#X connect 72 0 14 0;
#X connect 72 0 24 0;
#X connect 73 0 19 0;
#X connect 73 0 25 0;
#X connect 74 0 28 0;
#X connect 74 0 29 0;
#X connect 75 0 32 0;
#X connect 75 0 38 0;
#X connect 76 0 35 0;
#X connect 76 0 39 0;
#X connect 77 0 31 0;
#X connect 78 0 31 0;
#X connect 79 0 31 0;
#X connect 80 0 42 0;
#X connect 80 0 43 0;
#X connect 81 0 46 0;
#X connect 81 0 52 0;
#X connect 82 0 49 0;
#X connect 82 0 53 0;
#X connect 83 0 62 0;
#X connect 83 0 66 0;
#X connect 84 0 59 0;
#X connect 84 0 65 0;
#X connect 85 0 56 0;
#X connect 85 0 57 0;
#X connect 87 0 88 0;
#X connect 88 0 91 0;
#X connect 89 0 91 1;
#X connect 90 0 89 0;
#X connect 91 0 98 1;
#X connect 92 0 45 0;
#X connect 93 0 45 0;
#X connect 94 0 45 0;
#X connect 95 0 45 0;
#X connect 96 0 45 0;
#X connect 97 0 45 0;
#X connect 99 0 11 0;
#X connect 100 0 101 0;
#X connect 100 0 106 0;
#X connect 104 0 102 0;
#X connect 104 0 113 0;
#X connect 105 0 103 0;
#X connect 106 0 107 0;
#X connect 107 0 111 0;
#X connect 108 0 114 0;
#X connect 109 0 110 0;
#X connect 110 0 112 1;
#X connect 111 0 112 0;
#X connect 112 0 108 0;
#X connect 113 0 109 0;
#X connect 114 0 99 0;
#X connect 115 0 12 0;
#X connect 118 0 116 0;
#X connect 118 1 117 0;
#X connect 119 0 120 0;
#X connect 119 1 121 0;
#X connect 119 2 122 0;
